<svg height="512" viewBox="0 0 128 128" width="512" xmlns="http://www.w3.org/2000/svg"><g><path d="m51.125 51.891h25.75v54.236h-25.75z" fill="#fbb540"/><path d="m59.125 59.891h9.75v38.236h-9.75z" fill="#ea6b65"/><path d="m72.872 116.313h-17.744l-4.003-10.186h25.75z" fill="#707070"/><path d="m55.128 41.69h17.744l4.003 10.185h-25.75z" fill="#707070"/><path d="m77.033 126.247h-26.066a4.967 4.967 0 0 1 -4.967-4.967 4.967 4.967 0 0 1 4.967-4.967h26.066a4.967 4.967 0 0 1 4.967 4.967 4.967 4.967 0 0 1 -4.967 4.967z" fill="#424242"/><path d="m72.872 41.69-1.783-11.833a120.425 120.425 0 0 0 -3.523-15.949l-3.566-12.161-3.566 12.161a120.425 120.425 0 0 0 -3.523 15.949l-1.783 11.833z" fill="#fbb540"/></g></svg>